<?xml version="1.0" encoding="utf-8"?>
<svg version="1.1" id="Layer_1" xmlns="http://www.w3.org/2000/svg" xmlns:xlink="http://www.w3.org/1999/xlink" x="0px" y="0px"
	 viewBox="0 0 259.3 103.5" style="enable-background:new 0 0 259.3 103.5;" xml:space="preserve">
<style type="text/css">
	.st0{fill:#670C00;}
</style>
<g>
	<path d="M48.4,101.3V59.8c0-12.1-8.1-20.9-19.2-20.9S10,47.7,10,59.8v41.5H0.8V59.1C0.8,42.3,12.7,30,29.2,30s28.4,12.3,28.4,29.1
		v42.2H48.4z"/>
	<path class="st0" d="M157.8,103c-12.6,0-20.9-4.7-28-15.9c-7.1,11.3-15.4,15.9-28,15.9c-18.1,0-30.7-12.5-30.7-30.3V0.1h9.7V72
		c0,12.7,9,21.9,21.4,21.9c11.3,0,22.7-8.3,22.7-26.7V0.1h9.7v67c0,18.5,11.4,26.7,22.7,26.7c12.4,0,21.4-9.2,21.4-21.9V0h9.7v72.6
		C188.4,90.5,175.9,103,157.8,103z"/>
	<path d="M249.4,101.3V59.8c0-12.1-8.1-20.9-19.2-20.9S211,47.7,211,59.8v41.5h-9.2V59.1c0-16.8,11.9-29.1,28.4-29.1
		s28.4,12.3,28.4,29.1v42.2H249.4z"/>
</g>
</svg>
