<?xml version="1.0" encoding="utf-8"?>
<!-- Generator: Adobe Illustrator 22.0.0, SVG Export Plug-In . SVG Version: 6.00 Build 0)  -->
<svg version="1.1" id="Layer_1" xmlns="http://www.w3.org/2000/svg" xmlns:xlink="http://www.w3.org/1999/xlink" x="0px" y="0px"
	 viewBox="0 0 259.3 103.5" style="enable-background:new 0 0 259.3 103.5;" xml:space="preserve">
<style type="text/css">
	.st0{fill:#670C00;}
</style>
<g>
	<path d="M49.4,100.3V59.8c0-12.7-8.5-21.9-20.2-21.9S9,47.1,9,59.8v40.5H1.8V59.1C1.8,42.8,13.3,31,29.2,31
		c15.9,0,27.4,11.8,27.4,28.1v41.2H49.4z"/>
	<path class="st0" d="M157.8,102c-12.3,0-20.2-4.5-27.2-15.4l-0.8-1.3l-0.8,1.3c-6.9,11-14.8,15.4-27.2,15.4
		c-17.5,0-29.7-12-29.7-29.3V1.1h7.7V72c0,13.3,9.4,22.9,22.4,22.9c11.8,0,23.7-8.6,23.7-27.7V1.1h7.7v66
		c0,19.1,11.9,27.7,23.7,27.7c13,0,22.4-9.6,22.4-22.9V1h7.7v71.6C187.4,89.9,175.2,102,157.8,102z"/>
	<path d="M250.4,100.3V59.8c0-12.7-8.5-21.9-20.2-21.9S210,47.1,210,59.8v40.5h-7.2V59.1c0-16.3,11.5-28.1,27.4-28.1
		c15.9,0,27.4,11.8,27.4,28.1v41.2H250.4z"/>
</g>
</svg>
